<svg xmlns="http://www.w3.org/2000/svg" width="339" height="306" viewBox="0 0 339 306">
    <defs>
        <filter id="0ovgqhcwwa" width="121.6%" height="123.8%" x="-10.8%" y="-11.9%" filterUnits="objectBoundingBox">
            <feOffset dy="2" in="SourceAlpha" result="shadowOffsetOuter1"/>
            <feGaussianBlur in="shadowOffsetOuter1" result="shadowBlurOuter1" stdDeviation="7.5"/>
            <feColorMatrix in="shadowBlurOuter1" result="shadowMatrixOuter1" values="0 0 0 0 0 0 0 0 0 0 0 0 0 0 0 0 0 0 0.7 0"/>
            <feMerge>
                <feMergeNode in="shadowMatrixOuter1"/>
                <feMergeNode in="SourceGraphic"/>
            </feMerge>
        </filter>
    </defs>
    <g fill="none" fill-rule="evenodd">
        <g fill="#FFF">
            <g filter="url(#0ovgqhcwwa)" transform="translate(-289 -268) translate(304 280)">
                <path fill-rule="nonzero" d="M72.02 69.62l-2.88-2.76c.56-.92 1-1.84 1.36-2.76.08-.2.16-.56.16-.92 0-.32-.16-.6-.52-.84-.831-.567-2.875-1.347-4.414-1.702l-.266-.058c-.32-.08-.48 0-.56.2l-.6 1.04c.88.52 1.76 1.32 2.08 1.96-.84 2.6-2.52 5.36-4.84 7.96 0-.128-.026-.256-.077-.425l-.043-.135c-.16-.52-.56-1.44-.92-2.08l-1.36-.6-2.16-2.12c.24-.39.435-.78.619-1.17l.181-.39c.12-.24.2-.52.2-.92 0-.36-.2-.64-.56-.84-.88-.52-3.08-1.2-4.64-1.44-.28-.04-.44.04-.56.2l-.56 1.04c.84.44 1.68 1.12 2.04 1.68-1.28 3.44-4.28 7.04-8.32 10-.2.16-.24.32-.08.48l.64.56c.16.12.28.12.52-.04 3.92-1.96 7.08-4.48 9.24-7.24l3.52 3.92c.28.28.64.52.92.56.16.04.28 0 .44 0-.84.84-1.76 1.72-2.76 2.52-.24.2-.24.36-.08.48l.68.56c.16.12.28.12.52-.04 3.72-2.12 6.72-4.72 8.88-7.48l5.04 5.52c.249.32.561.608.852.697l.108.023c.56.16 1.36-.2 1.6-.76.12-.24.12-.6-.12-1.16-.24-.68-.88-1.92-1.4-2.72l-1.88-.8zM50.1 47.26c0-2.64 2.08-4.16 4.76-4.16 2.64 0 4.76 1.52 4.76 4.16 0 2.56-2.12 4.12-4.76 4.12-2.68 0-4.76-1.56-4.76-4.12zm24.36 2.76l-2.44.12v-8.48l.12-2.24c.04-.48-.12-.8-.52-.96-1.28-.56-4.08-1.12-5.76-1.2-.36 0-.48.08-.52.24l-.44 1.24c1.4.52 2.64 1.32 3.24 2.2v13.449c.003.403.011.877.04 1.391l-.723.14c-2.77.512-6.794 1.013-10.717 1.38v-3.36c3.8-.6 6.72-3.12 6.72-6.68 0-4.16-3.92-6.88-8.6-6.88-4.72 0-8.6 2.72-8.6 6.88 0 3.6 2.96 6.12 6.84 6.72v3.6l-2.126.145c-1.363.086-2.607.148-3.674.175-1.4.04-3.12-.08-4.52-.32l-.28.6c-.08.2-.04.32.12.48 1.08.96 2.64 2 4 2.68.84-.32 2.44-.64 3.36-.72 4.84-.36 13.76-1.68 18.28-2.84l.044.601c.066.884.138 1.675.236 2.199h2.24c.72-1.88 1.24-5.32 1.24-7.72v-.32l6.52-.16c.36 0 .8-.12 1.04-.32.28-.28.52-1 .48-1.84-.04-.36-.32-.68-.76-.8-.72-.16-2.4-.24-3.56-.2l-1.28.8zm40.307 3.92l-2.44.12V41.7l.12-2.28c.04-.48-.12-.8-.52-.96-1.32-.56-4.16-1.12-5.88-1.2-.36 0-.44.08-.52.24l-.4 1.24c1.4.52 2.68 1.32 3.32 2.2V59.3c-5.16 1.4-12.6 2.32-17.24 2.4-.52.04-.72-.2-.72-.72V47.26l11.76-.4c.28 0 .52-.08.68-.24.24-.28.48-.92.48-1.76 0-.4-.24-.64-.6-.72-.84-.16-2.56-.24-3.64-.24l-1.16.72-.57.044c-1.75.12-5.584.276-7.07.276-1.4-.24-4.4-.4-5.76-.4-.24 0-.36.08-.44.24l-.24 1.12c1.04.28 2.04.8 2.6 1.4v13.32c0 .84.08 1.56.24 2 .48 1.48 1.64 2.44 3.28 2.44.44 0 .96 0 1.52-.08 4.68-.4 11.52-1.72 16.88-3.48v6.16c0 1.8.16 6.64.36 8.2h2.2c.84-2.52 1.32-6.96 1.32-9.44v-9.96l6.52-.16c.36 0 .8-.12 1.04-.32.28-.28.52-1 .48-1.84-.04-.36-.32-.68-.76-.8-.72-.16-2.4-.24-3.56-.2l-1.28.8zm14.426 18.96c-.88 3.24-3.04 5.2-6.12 6.88l.52 1.16c4-1.52 8.08-5.6 8.08-10.8 0-1.12-.16-2-.52-3.12-.96-.88-1.76-1.08-2.64-1.08-1.76 0-2.84 1.24-2.84 2.76 0 1.08.56 2.2 1.84 3.08l1.68 1.12zM59.62 114.14l-4.48-4.68c1.2-2.2 2.08-4.44 2.52-6.56.04-.28.08-.64.08-1s-.2-.68-.56-.88c-1-.6-3.68-1.44-5.28-1.64-.28-.04-.44 0-.52.16l-.56 1.08c1 .56 2 1.48 2.4 2.24-1.16 5.8-5.08 12.52-10.72 18-.16.2-.16.32-.04.48l.68.56c.16.08.32.08.52-.04 4.24-2.92 7.68-6.48 10.12-10.16l7.2 8.12c.284.32.632.703.93.84l.11.04c.56.24 1.56-.08 1.88-.72.12-.32.12-.8-.16-1.48-.36-.84-1.24-2.4-1.92-3.4l-2.2-.96zm14.84-3.32l-2.44.12V98.7l.12-2.28c.04-.48-.12-.8-.52-.96-1.32-.56-4.16-1.12-5.88-1.2-.36 0-.44.08-.52.24l-.4 1.24c1.4.52 2.68 1.32 3.32 2.2v26.72c0 1.8.16 6.64.36 8.2h2.2c.84-2.52 1.32-6.96 1.32-9.44V113.3l6.52-.16c.36 0 .8-.08 1.04-.32.28-.24.52-.96.48-1.8-.04-.4-.32-.72-.76-.8-.72-.16-2.4-.24-3.56-.2l-1.28.8zm40.307-3.76l-2.44.12v-8.52l.12-2.24c0-.48-.16-.8-.52-.96-1.28-.56-4.08-1.12-5.76-1.2-.36 0-.48.08-.56.24l-.4 1.24c1.36.52 2.6 1.32 3.24 2.2v13.76c-5.2 1.4-12.96 2.32-17.72 2.4-.56 0-.76-.24-.76-.72v-4.96l11.8-.36c.2-.24.44-.8.44-1.36 0-.2-.12-.36-.32-.48l-.68-.36c.32-1.16.72-3.6.8-4.96l.48-1.36c.12-.24.08-.4-.08-.56-.396-.252-1.31-.763-1.869-1.009l-.171-.071c-.24-.12-.52-.12-.72 0l-1.48.68-1.174.037c-2.606.066-7.51.123-8.826.123-.96 0-2.6-.08-3.64-.32l-.32.6c-.04.16-.04.32.12.44.88.8 2 1.56 3.2 2.12.96-.28 2.32-.52 3.12-.6l1.027-.03c1.686-.04 4.687-.09 6.133-.09l.012.403c.027 1.186.023 3.595-.012 4.477l-.72.2-.303.028c-1.415.11-5.15.212-6.737.212-1.24-.08-4.36-.12-5.72-.12-.24 0-.4.08-.44.24l-.2.96c.96.28 1.8.68 2.36 1.16v4.44c0 .756.064 1.447.194 1.87l.046.13c.44 1.44 1.56 2.36 3.12 2.36.4 0 .96-.04 1.44-.08 4.96-.4 12.12-1.68 17.64-3.36l.028.967c.055 1.546.16 3.217.292 4.073h2.28c.72-1.92 1.24-5.44 1.24-7.92v-1.36l6.52-.16c.36 0 .8-.08 1.04-.32.28-.24.52-1 .48-1.8-.04-.4-.32-.72-.76-.8-.72-.16-2.4-.24-3.56-.2l-1.28.8zm-11.6 11.4c-5.04 0-8.96 2.76-8.96 7 0 4.56 3.92 7.48 8.96 7.48 5.04 0 8.92-2.92 8.92-7.48 0-4.24-3.88-7-8.92-7zm0 11.36c-2.84 0-4.96-1.6-4.96-4.36 0-2.76 2.12-4.36 4.96-4.36 2.8 0 4.92 1.6 4.92 4.36 0 2.76-2.12 4.36-4.92 4.36zm41.906-30.12v11.36c0 1.64.16 4.56.4 5.84h2.12c.64-1.52 1.12-4.4 1.12-6.84v-.56l3.96-.08v2.84c0 1.48.16 4.64.4 5.92h2.2c.64-1.6 1.16-4.8 1.16-6.92v-12.8l.12-2.12c.036-.396-.09-.695-.407-.867l-.113-.053c-1.16-.56-3.84-1.08-5.4-1.16-.36 0-.48.08-.56.28l-.4 1.2c1.28.48 2.44 1.24 3 2.04v9.28l-3.96.08v-6.88l.08-1.88c.04-.44-.12-.72-.48-.88-1.08-.52-3.56-1.04-5-1.12-.36 0-.52.12-.56.28l-.44 1.16c1.2.44 2.28 1.12 2.76 1.88zm-16.56-1.76c-.08.16-.08.32.08.56.6.88 1.52 1.88 2.32 2.36.24.2.4.2.76.16l.872-.04c1.557-.064 3.568-.12 4.968-.12.24 0 .422-.03.57-.164l.07-.076c.335-.297.427-1.25.215-1.8l-.055-.12c-.106-.284-.276-.38-.594-.397l-.99-.021c-2.231-.057-4.997-.217-7.856-.782l-.36.44zm11.24 4.08l-1.2.52-.31.02c-2.125.121-9.612.3-11.05.3-.88 0-2.32-.12-3.36-.32l-.32.56c-.034.069-.039.225.061.344l.06.056c.76.72 1.88 1.56 2.96 2.08.64-.2 2-.44 2.72-.52l.287-.015c1.677-.08 7.335-.233 9.277-.26l.475-.005c.88 0 2.6.04 3.28.12.4-.24.92-.96.92-1.84 0-.28-.16-.52-.44-.6-.68-.24-2.32-.4-3.36-.44zm-5.24 6.08c2.28 0 4 1.28 4 3.48s-1.72 3.44-4 3.44c-2.28 0-4-1.24-4-3.44s1.72-3.48 4-3.48zm0 9.2c4.24 0 7.56-2.2 7.56-5.72 0-3.48-3.32-5.64-7.56-5.64-4.32 0-7.68 2.16-7.68 5.64 0 3.52 3.36 5.72 7.68 5.72zm20.52 9.44l-2.72-2.8c.52-.92.96-1.8 1.28-2.72.08-.24.16-.56.16-.96 0-.32-.2-.6-.56-.84-.88-.56-3.12-1.4-4.68-1.76-.28-.04-.44 0-.56.2l-.56 1.08c.88.48 1.72 1.32 2.04 1.96-.88 2.64-2.64 5.4-5.08 7.96 0-.128-.025-.282-.076-.481l-.044-.159c-.12-.52-.56-1.44-.96-2.08l-1.44-.68-2-2c.32-.56.6-1.12.84-1.68.08-.24.16-.52.16-.92 0-.36-.16-.64-.52-.84-.88-.52-3.08-1.2-4.64-1.44-.28-.04-.44.04-.56.2l-.56 1.04c.84.44 1.68 1.12 2.04 1.68-1.28 3.4-4.28 6.92-8.28 9.88-.2.16-.2.32-.04.52l.6.6c.16.12.28.12.56-.04 3.84-1.88 6.96-4.32 9.08-7.04l3.44 3.84c.28.32.64.56.96.6.16.04.32 0 .48-.04-.8.8-1.68 1.56-2.64 2.32-.2.16-.2.32-.04.48l.6.6c.12.12.28.12.52-.04 3.84-2 6.96-4.52 9.12-7.28l4.76 5.6c.25.284.593.6.863.695l.097.025c.52.16 1.32-.12 1.6-.72.12-.24.12-.6-.04-1.16-.24-.68-.88-1.92-1.4-2.72l-1.8-.88zm40.347-15.8l-2.44.12V98.7l.12-2.28c.04-.48-.12-.8-.52-.96-1.32-.56-4.16-1.12-5.88-1.2-.36 0-.44.08-.52.24l-.4 1.24c1.4.52 2.68 1.32 3.32 2.2v18.36c-4.969 1.348-12.052 2.251-16.713 2.388l-.527.012c-.52.04-.72-.2-.72-.72v-13.72l11.76-.4c.28 0 .52-.08.68-.24.24-.28.48-.92.48-1.76 0-.4-.24-.64-.6-.72-.84-.16-2.56-.24-3.64-.24l-1.16.72-.569.044c-1.751.12-5.585.276-7.071.276-1.4-.24-4.4-.4-5.76-.4-.24 0-.36.08-.44.24l-.24 1.12c1.04.28 2.04.8 2.6 1.4v13.32c0 .84.08 1.56.24 2 .48 1.48 1.64 2.44 3.28 2.44.44 0 .96 0 1.52-.08 4.68-.4 11.52-1.72 16.88-3.48v6.16c0 1.8.16 6.64.36 8.2h2.2c.84-2.52 1.32-6.96 1.32-9.44v-9.96l6.52-.16c.36 0 .8-.12 1.04-.32.28-.28.52-1 .48-1.84-.04-.36-.32-.68-.76-.8-.72-.16-2.4-.24-3.56-.2l-1.28.8zm14.427 18.96c-.88 3.24-3.04 5.2-6.12 6.88l.52 1.16c4-1.52 8.08-5.6 8.08-10.8 0-1.12-.16-2-.52-3.12-.96-.88-1.76-1.08-2.64-1.08-1.76 0-2.84 1.24-2.84 2.76 0 1.08.56 2.2 1.84 3.08l1.68 1.12zM74.02 178.7l-1.6.72-.58.03c-.705.03-1.77.06-3.06.09 2.08-5.72 3.64-13.84 3.76-19.4l.68-1.64c.08-.24.08-.4-.12-.56-.44-.33-1.451-.963-2.11-1.281l-.17-.079c-.2-.12-.52-.12-.8 0l-1.64.8-.828.038c-3.833.152-14.175.322-16.092.322-1.2 0-2.92-.12-4.28-.36l-.28.6c-.07.14-.079.28.054.42l.066.06c.96.88 2.44 1.84 3.76 2.4.953-.293 2.612-.587 3.714-.664l.624-.034c2.414-.118 9.832-.262 13.062-.262-.12 5.64-.88 14.16-1.96 19.72l-10.233.149c-3.987.047-7.37.073-8.327.051-1.4-.04-3.36-.2-4.84-.44l-.32.64c-.08.16-.04.32.12.48 1.04.96 2.68 1.96 4.24 2.52 1.04-.32 3.28-.72 4.32-.8l.425-.023c3.352-.15 18.227-.323 21.59-.3l.84.007c1.361.017 3.435.091 4.345.196.48-.24 1.08-1 1.08-1.88 0-.4-.24-.68-.6-.8-1-.36-3.28-.64-4.84-.72zm33.387-25.96c1.4.52 2.68 1.32 3.32 2.2v19.36c-5.2 1.44-13.04 2.32-17.88 2.36-.56 0-.76-.24-.76-.76v-6.88l11.76-.36c.2-.24.44-.84.44-1.44 0-.2-.08-.36-.28-.48l-.84-.44c.4-1.56.92-4.68 1-6.48l.48-1.4c.08-.24.08-.44-.12-.56-.44-.28-1.52-.84-2.04-1.08-.206-.103-.47-.118-.668-.044l-1.492.724-.62.034c-2.131.096-6.976.182-9 .173l-.58-.007c-.96 0-2.64-.08-3.72-.32l-.32.6c-.04.16-.04.32.12.44.92.76 2.08 1.56 3.28 2.16.96-.28 2.4-.56 3.2-.64l.255-.017c1.315-.074 5.196-.143 6.905-.143l.02.435c.058 1.582.044 4.967-.1 6.125l-.68.2-.643.038c-1.547.076-4.716.168-6.317.202-1.24-.16-4.4-.2-5.72-.2-.28 0-.4.08-.44.24l-.2.96c.92.28 1.8.72 2.36 1.24v6.48c0 .756.064 1.447.194 1.87l.046.13c.48 1.48 1.6 2.4 3.2 2.4l.68-.005c.25-.005.52-.015.8-.035 4.96-.4 12.2-1.68 17.68-3.4v5.24c0 1.8.16 6.64.36 8.2h2.2c.8-2.52 1.28-6.96 1.28-9.44V155.7l.16-2.28c0-.48-.16-.8-.56-.96-1.28-.56-4.16-1.12-5.84-1.2-.32 0-.45.063-.504.19l-.416 1.29zm42.266 6.24c.04 4.6-.32 11.72-1.12 16.24-.04.4.04.56.28.6l1.08.24c.28 0 .56-.08.68-.36 1.84-4.68 3.32-11.72 3.48-16.52l.64-1.6c.08-.24.08-.44-.12-.6l-.322-.21c-.5-.317-1.244-.767-1.771-1.023l-.187-.087c-.2-.12-.52-.12-.76 0l-1.64.8-1.103.046c-4.218.15-14.54.31-16.497.274-1.2 0-2.92-.12-4.24-.36l-.32.6c-.08.2-.04.32.16.52.96.88 2.4 1.8 3.72 2.4 1.04-.32 2.92-.64 4.04-.72l.715-.034c2.8-.114 9.984-.242 13.285-.206zm4.96 20.52l-1.6.72-.365.02c-1.695.078-6.145.186-10.835.26l.12-9.64.24-2c.04-.4-.12-.64-.52-.76-1.04-.32-3.88-.64-5.24-.64-.4 0-.48.12-.52.24l-.28 1.08c.96.32 2 .92 2.48 1.44l.08 10.32-3.355.046c-3.19.034-5.755.034-6.565.034-1.4-.04-3.36-.2-4.84-.44l-.32.64c-.08.16-.04.32.12.44 1.04 1 2.68 2 4.24 2.56 1.04-.32 3.28-.72 4.32-.8l.425-.023c3.353-.15 18.227-.323 21.59-.3l.84.007c1.362.017 3.435.091 4.345.196.48-.24 1.08-1 1.08-1.88 0-.4-.24-.68-.6-.8-1-.36-3.28-.64-4.84-.72zm41.254-22.4c.105-.175.087-.38-.053-.51l-.067-.05c-.4-.32-1.52-.92-2.12-1.2-.24-.08-.56-.08-.8 0l-1.44.72-.409.029c-2.136.13-7.363.228-9.352.218l-.52-.007c-1.04 0-2.48-.08-3.64-.24l-.32.48c-.04.16-.04.28.12.48.84.76 2.12 1.56 3.28 2.04.728-.255 2.017-.51 2.817-.583l.465-.034c1.23-.069 4.756-.106 6.799-.143-2.48 5.88-7.84 12.2-14.96 16.96-.16.2-.12.32 0 .48l.6.64c.103.069.235.049.422-.034l.098-.046c8.64-4.04 15.8-11.12 18.36-17.88l.72-1.32zm-4.16 28.48c.28.32.64.56.96.6.443.074 1.022-.16 1.266-.604l.054-.116c.12-.2.08-.48 0-.88-.2-.56-.6-1.48-.96-2.12l-1.32-.6-2.08-2.08c.48-.76.84-1.52 1.16-2.32.08-.24.16-.56.16-.96 0-.32-.16-.6-.52-.8-.88-.52-3.12-1.24-4.64-1.48-.28-.04-.44.04-.56.2l-.56 1.08c.84.44 1.64 1.12 2 1.68-1.2 3.72-4.32 7.76-8.48 11.08-.24.16-.2.32-.08.44l.6.6c.16.08.32.08.56-.08 3.8-2.04 6.88-4.64 9.04-7.44l3.4 3.8zm13.4-2.12l-3.24-3.24c.64-1.08 1.12-2.16 1.48-3.24.08-.24.16-.56.16-.96 0-.32-.16-.6-.52-.84-.92-.56-3.16-1.4-4.68-1.76-.32-.04-.48 0-.56.2l-.6 1.08c.88.48 1.72 1.32 2.04 1.96-1.16 4.08-4.24 8.6-8.52 12.36-.24.2-.2.36-.04.48l.6.56c.12.12.28.12.56-.04 3.68-2.2 6.68-4.92 8.8-7.8l5.2 5.96c.32.36.68.68.96.76.56.16 1.36-.16 1.64-.72.106-.249.118-.561-.021-.992l-.06-.168c-.24-.72-.84-1.96-1.4-2.76l-1.8-.84zm2.08-19.88l-2.44.12v-8.04l.12-2.24c0-.48-.16-.8-.52-.96-1.28-.56-4.08-1.12-5.76-1.2-.36 0-.48.08-.56.24l-.4 1.24c1.36.52 2.6 1.32 3.24 2.2v11.92c0 1.56.12 5 .36 6.28h2.28c.68-1.6 1.2-4.72 1.24-7.08l6.52-.16c.36 0 .8-.08 1.04-.32.28-.28.52-1 .48-1.8-.04-.4-.32-.72-.76-.84-.72-.16-2.4-.24-3.56-.2l-1.28.84zm40.306 4.36l-2.44.12V155.7l.12-2.28c.04-.48-.12-.8-.52-.96-1.32-.56-4.16-1.12-5.88-1.2-.36 0-.44.08-.52.24l-.4 1.24c1.4.52 2.68 1.32 3.32 2.2v18.36c-4.969 1.348-12.052 2.251-16.713 2.388l-.527.012c-.52.04-.72-.2-.72-.72v-13.72l11.76-.4c.28 0 .52-.08.68-.24.24-.28.48-.92.48-1.76 0-.4-.24-.64-.6-.72-.84-.16-2.56-.24-3.64-.24l-1.16.72-.569.044c-1.75.12-5.585.276-7.07.276-1.4-.24-4.4-.4-5.76-.4-.24 0-.36.08-.44.24l-.24 1.12c1.04.28 2.04.8 2.6 1.4v13.32c0 .84.08 1.56.24 2 .48 1.48 1.64 2.44 3.28 2.44.44 0 .96 0 1.52-.08 4.68-.4 11.52-1.72 16.88-3.48v6.16c0 1.8.16 6.64.36 8.2h2.2c.84-2.52 1.32-6.96 1.32-9.44v-9.96l6.52-.16c.36 0 .8-.12 1.04-.32.28-.28.52-1 .48-1.84-.04-.36-.32-.68-.76-.8-.72-.16-2.4-.24-3.56-.2l-1.28.8zm14.027 18.12c-1.72 0-3.12-1.36-3.12-3.04 0-1.72 1.4-3.08 3.12-3.08 1.72 0 3.08 1.36 3.08 3.08 0 1.68-1.36 3.04-3.08 3.04z"/>
                <text font-family="NotoSerifKR-SemiBold, Noto Serif KR SemiBold" font-size="18" font-weight="500" letter-spacing=".75">
                    <tspan x="47" y="276">- 이하복 先生</tspan>
                </text>
                <path fill-rule="nonzero" d="M292.76 215.32c-1.32 3.42-3.18 5.4-6.6 7.62l.9 1.5c5.22-2.76 9.12-7.8 9.12-13.32 0-1.68-.36-3.42-1.08-4.86-.96-.84-2.1-1.26-3.48-1.26-2.16 0-3.84 1.38-3.84 3.84 0 1.56.54 2.94 2.52 4.56l2.46 1.92zm13.08 0l-2.46-1.92c-1.98-1.62-2.52-3-2.52-4.56 0-2.46 1.62-3.84 3.84-3.84 1.38 0 2.52.42 3.42 1.26.78 1.44 1.14 3.18 1.14 4.86 0 5.52-3.9 10.56-9.12 13.32l-.96-1.5c3.48-2.22 5.28-4.2 6.66-7.62zM9.12 0C3.9 2.76 0 7.8 0 13.32c0 1.68.42 3.42 1.14 4.86.9.84 2.04 1.26 3.42 1.26 2.22 0 3.84-1.38 3.84-3.84 0-1.56-.54-2.94-2.52-4.56L3.42 9.12C4.8 5.7 6.66 3.72 10.08 1.5L9.12 0zm7.38 9.12l2.46 1.92c1.98 1.62 2.52 3 2.52 4.56 0 2.46-1.68 3.84-3.84 3.84-1.38 0-2.52-.42-3.48-1.26-.72-1.44-1.08-3.18-1.08-4.86 0-5.52 3.9-10.56 9.12-13.32l.96 1.5c-3.48 2.22-5.34 4.2-6.66 7.62z"/>
            </g>
        </g>
    </g>
</svg>
